<svg width="25" height="18" viewBox="0 0 25 18" fill="none" xmlns="http://www.w3.org/2000/svg">
<path d="M8.15191 17.546L0.351909 9.746C0.240037 9.63452 0.151272 9.50205 0.090706 9.35619C0.0301396 9.21032 -0.0010376 9.05394 -0.0010376 8.896C-0.0010376 8.73807 0.0301396 8.58168 0.090706 8.43582C0.151272 8.28996 0.240037 8.15748 0.351909 8.046L2.05191 6.346C2.16339 6.23413 2.29586 6.14537 2.44173 6.0848C2.58759 6.02423 2.74397 5.99306 2.90191 5.99306C3.05985 5.99306 3.21623 6.02423 3.36209 6.0848C3.50795 6.14537 3.64042 6.23413 3.75191 6.346L8.99991 11.602L20.2549 0.351997C20.3664 0.240125 20.4989 0.151364 20.6447 0.0907974C20.7906 0.030231 20.947 -0.000946045 21.1049 -0.000946045C21.2628 -0.000946045 21.4192 0.030231 21.5651 0.0907974C21.711 0.151364 21.8434 0.240125 21.9549 0.351997L23.6549 2.052C23.7668 2.16349 23.8555 2.29596 23.9161 2.44182C23.9767 2.58768 24.0079 2.74406 24.0079 2.902C24.0079 3.05994 23.9767 3.21632 23.9161 3.36218C23.8555 3.50804 23.7668 3.64051 23.6549 3.752L9.85491 17.552C9.74342 17.6639 9.61095 17.7526 9.46509 17.8132C9.31923 17.8738 9.16285 17.9049 9.00491 17.9049C8.84697 17.9049 8.69059 17.8738 8.54473 17.8132C8.39886 17.7526 8.26639 17.6639 8.15491 17.552L8.15191 17.546Z" fill="#ffffff"/>
</svg>
